<?xml version="1.0" standalone="no"?>
<!DOCTYPE svg PUBLIC "-//W3C//DTD SVG 20010904//EN"
 "http://www.w3.org/TR/2001/REC-SVG-20010904/DTD/svg10.dtd">
<svg version="1.0" xmlns="http://www.w3.org/2000/svg"
 width="915.000000pt" height="915.000000pt" viewBox="0 0 915.000000 915.000000"
 preserveAspectRatio="xMidYMid meet">
<metadata>
Created by potrace 1.14, written by Peter Selinger 2001-2017
</metadata>
<g transform="translate(0.000000,915.000000) scale(0.100000,-0.100000)"
fill="#000000" stroke="none">
<path d="M4189 8286 c-2 -2 -47 -6 -99 -10 -52 -3 -115 -8 -140 -12 -93 -11
-306 -46 -340 -54 -19 -5 -46 -11 -60 -14 -131 -23 -396 -106 -583 -182 -221
-90 -547 -266 -547 -295 0 -9 -33 -38 -72 -64 -143 -94 -343 -247 -455 -348
-61 -55 -258 -251 -303 -302 -318 -358 -575 -820 -721 -1295 -32 -105 -34
-114 -19 -105 14 8 14 10 -19 -133 -29 -127 -65 -333 -75 -427 -3 -27 -9 -79
-13 -115 -15 -131 -8 -585 11 -700 3 -14 7 -43 11 -65 10 -73 35 -196 51 -258
9 -34 18 -71 20 -81 12 -60 109 -328 145 -398 22 -43 33 -51 19 -12 -13 33
-13 57 1 52 6 -2 27 -44 48 -93 38 -90 85 -191 167 -360 41 -84 108 -174 120
-162 3 3 -11 41 -31 84 -94 197 -210 498 -230 594 -2 9 -12 47 -23 85 -20 67
-43 164 -48 194 -1 8 -7 40 -12 70 -13 69 -18 102 -27 163 -4 27 -8 57 -10 67
-7 35 -8 140 -2 146 3 3 9 -16 13 -43 16 -110 24 -145 41 -168 13 -18 14 14 8
265 -9 401 -8 472 16 600 17 91 20 104 26 110 4 5 2 -28 -13 -160 -11 -98 -4
-474 10 -547 3 -11 7 -44 11 -74 10 -82 53 -287 72 -344 14 -42 17 -47 25 -30
6 14 7 7 4 -23 -4 -37 -2 -42 13 -37 14 4 33 -33 105 -203 188 -438 260 -557
497 -822 102 -115 169 -212 169 -246 0 -37 76 -165 182 -308 100 -135 465
-500 613 -613 247 -187 551 -346 891 -467 66 -23 268 -84 304 -91 8 -2 38 -9
65 -15 28 -6 64 -13 80 -16 17 -2 39 -5 50 -8 11 -2 45 -7 75 -11 30 -3 66 -8
80 -10 14 -2 63 -9 110 -15 47 -5 121 -17 165 -25 75 -13 326 -15 395 -2 14 3
48 8 75 11 28 3 61 8 75 10 14 3 43 7 65 11 22 3 90 15 150 26 61 11 124 23
140 25 68 12 256 64 380 106 742 250 1415 768 1849 1423 103 154 120 184 211
360 137 267 263 624 319 910 21 105 35 183 41 240 4 28 10 77 15 110 27 183
29 613 5 810 -2 17 -6 55 -10 85 -5 46 -17 121 -50 305 -30 163 -134 503 -199
648 -8 17 -26 60 -41 94 -15 34 -35 63 -44 66 -10 2 -35 39 -56 83 -242 493
-614 950 -1035 1269 -123 93 -297 208 -420 275 -105 58 -315 160 -331 160 -6
0 -24 7 -41 16 -22 11 -33 13 -38 5 -4 -8 -42 1 -121 29 -205 74 -470 144
-679 181 -73 12 -91 15 -175 24 -33 3 -73 8 -90 11 -16 4 -41 7 -55 9 -14 1
-56 6 -95 10 -38 4 -79 10 -90 12 -23 5 -521 14 -526 9z m541 -872 c0 -11 -5
-14 -16 -10 -9 3 -22 6 -30 6 -8 0 -14 5 -14 10 0 6 14 10 30 10 21 0 30 -5
30 -16z m-171 -4 c-6 -4 -8 -13 -4 -20 5 -8 10 -9 18 -1 15 15 55 14 124 -4
82 -21 102 -20 113 10 11 28 35 32 59 11 18 -17 101 -53 116 -51 23 3 45 18
39 26 -12 20 55 12 79 -9 18 -16 20 -16 32 1 9 13 20 15 44 11 17 -4 31 -11
31 -17 0 -6 12 -21 28 -34 l27 -22 -53 14 c-54 14 -88 13 -104 -3 -5 -5 59
-25 140 -46 279 -69 466 -138 707 -258 154 -77 209 -109 230 -132 6 -6 28 -20
50 -31 38 -19 62 -42 122 -112 16 -18 39 -34 52 -35 17 -2 40 -23 74 -68 27
-36 57 -72 66 -81 35 -34 147 -163 175 -202 17 -23 34 -43 38 -45 5 -2 8 -9 8
-16 0 -7 8 -21 18 -32 28 -31 83 -116 70 -108 -10 6 -11 5 -1 -8 7 -8 10 -18
6 -21 -3 -4 3 -17 14 -30 22 -24 37 -50 54 -94 8 -23 8 -26 -2 -15 -19 18 -29
15 -29 -8 0 -16 7 -20 34 -20 37 0 56 -14 31 -24 -10 -3 -15 -16 -13 -36 3
-34 14 -39 23 -10 3 11 11 20 16 20 16 0 22 -29 9 -45 -10 -12 -7 -14 17 -12
25 2 28 -1 29 -28 0 -16 4 -40 8 -52 13 -39 15 -62 6 -68 -5 -3 -13 10 -19 28
-6 19 -17 34 -25 34 -9 0 -6 -11 10 -34 13 -19 30 -60 39 -91 29 -107 46 -143
72 -155 19 -8 21 -12 9 -19 -18 -10 -15 -47 7 -78 9 -14 17 -30 17 -37 0 -6 9
-18 19 -25 17 -12 18 -17 5 -53 -7 -22 -14 -48 -14 -58 0 -23 34 -89 54 -106
9 -7 13 -17 11 -21 -3 -5 -9 -29 -14 -55 -7 -39 -6 -45 6 -41 8 3 23 1 34 -4
15 -9 17 -15 9 -30 -13 -25 -15 -82 -4 -140 5 -25 8 -106 7 -180 -5 -359 -9
-478 -17 -477 -4 1 -16 -11 -26 -28 -13 -22 -15 -34 -7 -44 20 -24 14 -93 -10
-119 -22 -24 -27 -41 -38 -136 -8 -63 -27 -99 -62 -117 -18 -9 -29 -23 -30
-39 -1 -14 -3 -37 -5 -52 -3 -34 -90 -203 -104 -202 -11 1 -34 -51 -34 -78 0
-12 -6 -18 -17 -16 -12 2 -19 -4 -21 -18 -2 -11 -29 -50 -61 -86 -65 -73 -93
-117 -110 -168 -6 -19 -43 -69 -81 -110 -38 -41 -75 -87 -82 -102 -8 -17 -16
-24 -23 -18 -6 5 -16 6 -22 2 -17 -11 -61 -77 -78 -119 -10 -24 -20 -33 -30
-29 -25 9 -46 -4 -36 -22 4 -10 6 -23 4 -29 -10 -29 64 -6 101 29 12 13 39 49
60 81 38 58 86 110 95 102 2 -3 -4 -13 -13 -24 -13 -14 -14 -21 -6 -26 7 -5
27 7 47 27 23 23 31 38 24 42 -7 4 -10 2 -9 -5 2 -7 -6 -14 -17 -16 -12 -3
-16 -1 -9 4 5 4 16 23 23 41 15 36 38 38 33 4 -2 -16 1 -20 12 -16 9 3 16 9
16 13 0 11 52 65 81 83 24 15 26 15 37 -3 18 -29 15 -38 -22 -55 -22 -11 -46
-37 -72 -81 -31 -52 -48 -69 -81 -84 -30 -13 -43 -24 -43 -38 0 -11 -9 -22
-20 -26 -23 -7 -80 -73 -80 -93 0 -22 -27 -42 -58 -42 -35 0 -45 -9 -31 -27 9
-10 6 -13 -17 -13 -34 0 -69 -22 -119 -73 -23 -24 -43 -36 -52 -33 -9 4 -23
-4 -35 -19 -11 -14 -47 -39 -79 -56 -32 -16 -59 -32 -59 -35 0 -4 18 -4 40 -1
25 3 67 24 115 56 41 28 82 51 91 51 10 0 42 24 73 52 31 29 67 61 81 70 14
10 57 40 97 68 97 67 180 153 128 134 -8 -4 -15 -2 -15 4 0 15 21 20 56 12 27
-6 33 -3 55 29 13 20 29 41 35 46 6 6 28 32 50 60 21 27 53 66 71 85 62 69
137 166 190 248 30 45 56 82 58 82 13 0 -50 -113 -83 -148 -22 -24 -66 -86
-96 -137 -74 -123 -126 -188 -169 -208 -27 -13 -36 -25 -41 -51 -4 -19 -24
-56 -45 -83 -21 -26 -46 -63 -55 -81 -13 -26 -22 -32 -43 -30 -23 3 -28 -2
-33 -28 -10 -46 -16 -52 -83 -85 -69 -35 -117 -75 -117 -98 0 -9 -14 -22 -30
-29 -17 -8 -36 -19 -43 -25 -50 -46 -262 -167 -292 -167 -3 0 -25 -9 -48 -19
-23 -10 -73 -33 -111 -50 -38 -17 -77 -31 -87 -31 -10 0 -32 -13 -49 -30 -37
-36 -87 -63 -94 -51 -9 13 -215 -38 -276 -69 -20 -10 -58 -18 -90 -19 -58 -1
-86 -5 -163 -22 -54 -13 -77 -34 -28 -27 20 3 30 1 28 -6 -7 -18 -58 -9 -79
14 -24 26 -54 26 -61 0 -5 -18 -2 -20 24 -16 34 5 45 -6 23 -25 -14 -11 -98
-16 -174 -11 -14 1 -38 0 -55 -2 -124 -17 -145 -18 -145 -4 0 10 -20 13 -80
13 -43 0 -76 -3 -72 -6 4 -4 34 -14 67 -24 49 -14 56 -18 41 -27 -13 -7 -26
-7 -45 2 -14 7 -33 15 -41 19 -8 4 -33 4 -54 0 -62 -10 -179 0 -346 31 -195
36 -227 41 -292 43 -35 1 -44 4 -41 17 5 20 -53 55 -70 42 -7 -5 -23 -8 -37
-5 -14 2 -34 5 -44 7 -10 1 -24 9 -30 17 -23 29 -47 41 -123 60 -78 20 -118
45 -134 86 -5 15 -20 24 -46 29 -21 4 -51 13 -67 21 -56 29 -161 106 -159 117
2 6 -17 20 -42 31 -31 14 -43 25 -40 35 3 10 -7 22 -30 34 -19 11 -35 22 -35
26 0 18 -130 138 -171 158 -25 12 -64 43 -86 69 -76 88 -82 95 -115 119 -17
13 -27 24 -20 24 7 0 12 9 12 20 0 11 -4 20 -10 20 -5 0 -27 15 -47 34 -21 18
-48 38 -61 45 -16 9 -22 19 -20 39 3 24 0 27 -29 27 -30 0 -32 -2 -27 -29 7
-42 29 -80 65 -112 82 -74 132 -125 112 -115 -15 8 -24 8 -28 1 -9 -15 34 -80
53 -80 15 1 15 2 -1 11 -9 6 -15 14 -12 19 3 6 24 -2 45 -16 40 -26 45 -50 9
-41 -27 7 -24 -4 10 -35 16 -15 38 -45 49 -66 l19 -38 -25 -12 c-29 -13 -42
-8 -42 18 0 20 -45 70 -97 109 -33 24 -48 51 -52 95 0 8 -14 17 -30 21 -20 4
-28 11 -25 20 6 16 -63 95 -86 98 -30 5 -40 19 -40 59 0 34 -2 39 -15 28 -12
-10 -14 -7 -13 23 1 37 -27 91 -70 134 -17 17 -21 28 -14 35 8 8 4 20 -12 42
-13 17 -34 55 -46 84 -12 28 -27 52 -33 52 -19 0 1 -79 43 -164 23 -47 39 -90
36 -94 -3 -5 9 -26 26 -46 50 -61 123 -207 120 -238 -2 -16 -7 -28 -11 -28
-14 0 -212 194 -227 222 -11 20 -12 33 -5 46 8 14 11 14 11 2 0 -12 3 -11 11
3 14 23 2 77 -17 77 -8 0 -17 7 -20 15 -4 11 -11 12 -24 5 -14 -8 -21 -1 -43
43 -14 29 -38 90 -52 137 -67 217 -108 336 -131 382 -22 43 -26 64 -26 139 0
52 -8 121 -19 171 -11 46 -19 97 -18 113 6 106 -2 212 -18 233 -14 19 -13 20
-17 -70 -2 -54 -14 -56 -22 -3 -6 43 1 265 10 325 3 14 5 62 5 108 1 64 4 82
15 82 8 0 14 8 14 18 0 9 2 42 6 72 l7 55 -24 -45 c-14 -25 -31 -65 -38 -90
-7 -25 -19 -51 -28 -58 -13 -10 -16 -36 -16 -130 -1 -136 -8 -166 -36 -157
-13 4 -19 2 -19 -9 0 -39 -23 -118 -30 -105 -18 32 -24 139 -25 391 0 208 3
268 13 268 6 0 12 4 12 8 0 5 7 17 15 28 14 17 15 14 9 -41 -4 -44 -1 -65 9
-79 14 -19 15 -18 21 20 3 21 8 63 12 93 3 30 8 63 10 75 2 11 7 38 10 61 18
111 20 123 27 155 39 168 52 217 73 290 89 294 212 555 371 785 74 107 185
244 197 245 4 0 6 -23 4 -51 l-5 -51 31 33 c17 19 83 99 147 179 118 147 178
213 237 258 48 36 52 18 6 -30 -25 -27 -30 -36 -14 -25 37 25 63 35 111 42 48
7 77 25 42 25 -12 0 -24 4 -27 9 -8 12 101 105 125 106 10 1 38 15 62 32 65
46 75 49 40 12 -18 -19 -33 -38 -33 -42 0 -11 26 -8 54 5 20 8 25 17 21 35 -4
23 -2 24 32 20 43 -6 63 0 63 19 0 8 5 14 11 14 6 0 9 9 6 20 -3 11 -2 21 1
21 4 1 16 3 27 4 11 1 57 18 102 38 153 67 355 134 423 140 84 7 116 14 154
34 28 15 29 17 11 24 -20 8 -20 8 0 8 11 0 27 -4 35 -9 8 -5 11 -10 5 -10 -5
0 -4 -4 4 -9 8 -5 24 -3 40 5 14 7 60 16 101 19 108 9 123 13 133 30 13 24
117 17 117 -7 0 -22 38 -24 66 -3 10 8 15 15 9 15 -24 1 22 18 48 18 16 -1 23
-4 16 -8z m426 -31 c14 -14 -21 -11 -60 5 -19 8 -35 17 -35 19 0 8 84 -14 95
-24z m-1817 -294 c-8 -18 -15 -22 -23 -15 -7 5 -15 7 -18 3 -4 -3 -7 -2 -7 3
0 6 12 15 28 21 15 6 28 11 29 12 2 1 -3 -10 -9 -24z m-732 -4535 c35 -47 49
-60 52 -47 2 9 8 17 14 17 6 0 7 -15 3 -41 -7 -39 -6 -42 55 -101 72 -71 56
-69 -50 8 -92 66 -172 144 -148 144 9 0 30 -11 46 -25 41 -35 56 -31 22 5 -15
16 -32 48 -38 70 -6 23 -9 40 -7 38 2 -2 25 -32 51 -68z m444 -510 c62 -56
160 -131 210 -160 76 -45 330 -172 479 -241 106 -49 126 -61 124 -78 -2 -18 3
-21 37 -21 30 0 40 -4 40 -16 0 -24 -79 -13 -154 20 -32 14 -77 29 -99 33 -23
3 -59 19 -82 34 -23 16 -99 56 -168 89 -70 34 -145 77 -168 96 -22 19 -44 34
-49 34 -4 0 -47 29 -95 65 -49 36 -94 65 -101 65 -8 0 -11 6 -8 13 6 18 -22
42 -31 27 -11 -18 -33 -11 -40 13 -4 12 -23 39 -43 59 l-35 37 37 -11 c33 -11
39 -10 48 6 9 17 12 16 42 -11 17 -17 42 -40 56 -53z"/>
<path d="M2161 2871 c-7 -5 -10 -14 -7 -20 8 -13 66 -44 72 -39 5 6 -34 68
-43 68 -5 0 -14 -4 -22 -9z"/>
</g>
</svg>
